<svg id="Capa_1" enable-background="new 0 0 512 512" viewBox="0 0 512 512" width="100" xmlns="http://www.w3.org/2000/svg"><g><g><g><path d="m391 362h-30c-8.284 0-15-6.716-15-15s6.716-15 15-15h30c24.813 0 45-20.187 45-45s-20.187-45-45-45h-15c-8.284 0-15-6.716-15-15s6.716-15 15-15h15c41.355 0 75 33.645 75 75s-33.645 75-75 75z" fill="#ff435b"/></g></g><g><path d="m61 212c-8.28 0-15 6.72-15 15v118.4c0 91.21 73.33 166.35 164.53 166.6h.47c90.99 0 165-74.02 165-165v-135z" fill="#ff7b4a"/></g><path d="m376 212v135c0 90.98-74.01 165-165 165v-300z" fill="#ff435b"/><g><path d="m406 497c0 8.28-6.72 15-15 15h-360c-8.28 0-15-6.72-15-15s6.72-15 15-15h360c8.28 0 15 6.72 15 15z" fill="#61729b"/></g><path d="m406 497c0 8.28-6.72 15-15 15h-180v-30h180c8.28 0 15 6.72 15 15z" fill="#47568c"/><g><path d="m241 182c-8.284 0-15-6.716-15-15 0-25.477 20.607-47 45-47h120c8.271 0 15-6.729 15-15s-6.729-15-15-15h-90c-24.813 0-45-20.187-45-45s20.187-45 45-45h180c8.284 0 15 6.716 15 15s-6.716 15-15 15h-180c-8.271 0-15 6.729-15 15s6.729 15 15 15h90c24.813 0 45 20.187 45 45s-20.187 45-45 45h-120c-7.71 0-15 8.262-15 17 0 8.284-6.716 15-15 15z" fill="#dfe7f4"/></g></g></svg>