<svg id="Capa_1" enable-background="new 0 0 511.897 511.897" height="512" viewBox="0 0 511.897 511.897" width="512" xmlns="http://www.w3.org/2000/svg"><g><g><path d="m330.934 52.36v60c0 8.28-6.72 15-15 15s-15-6.72-15-15v-45h-90v45c0 8.28-6.72 15-15 15s-15-6.72-15-15v-60c0-8.28 6.72-15 15-15h120c8.28 0 15 6.72 15 15z" fill="#47568c"/></g><path d="m330.934 52.36v60c0 8.28-6.72 15-15 15s-15-6.72-15-15v-45h-45v-30h60c8.28 0 15 6.72 15 15z" fill="#29376d"/><g><path d="m390.934 142.36v150c0 8.28-6.72 15-15 15h-240c-8.28 0-15-6.72-15-15v-150z" fill="#47568c"/><path d="m390.934 142.36v150c0 8.28-6.72 15-15 15h-120v-165z" fill="#29376d"/><path d="m375.934 97.36h-240c-8.28 0-15 6.72-15 15v30c0 41.35 33.65 75 75 75h120c41.36 0 75-33.65 75-75v-30c0-8.28-6.72-15-15-15z" fill="#61729b"/><path d="m390.934 112.36v30c0 41.35-33.64 75-75 75h-60v-120h120c8.28 0 15 6.72 15 15z" fill="#47568c"/></g><g><path d="m270.934 202.36v30c0 8.28-6.72 15-15 15s-15-6.72-15-15v-30c0-8.28 6.72-15 15-15s15 6.72 15 15z" fill="#fed843"/></g><path d="m270.934 202.36v30c0 8.28-6.72 15-15 15v-60c8.28 0 15 6.72 15 15z" fill="#fabe2c"/><path d="m510.304 305.21c-.39 1.87-10.03 46.2-44.14 65.89-20.55 11.86-48.71 12.74-70.8 7.6-3.56 2.94-7.24 5.71-11.02 8.28 32.78 20.15 42.11 63.07 42.5 64.92 1.57 7.48-2.74 14.95-10 17.33-23.17 7.59-56.07 8.04-79.14-5.28-23.85-13.77-35.73-39.32-40.86-54.06-18.21-1.85-28.16-3-40.91-2.89-10.06.08-21.88.96-40.88 2.89-5.13 14.74-17.01 40.29-40.86 54.06-23.3 13.45-56.33 12.75-79.14 5.28-7.26-2.39-11.57-9.85-10-17.33.38-1.85 9.72-44.77 42.5-64.92-3.78-2.57-7.46-5.33-11.02-8.28-22.3 5.2-50.41 4.17-70.8-7.6-34.11-19.69-43.75-64.02-44.14-65.89-1.57-7.49 2.74-14.95 10-17.33 1.32-.44 24.25-7.77 49.73-4.37-1.14-5.52-1.95-10.93-2.45-16.24-14.25-6.19-39.81-20.35-51.72-45.89-16.65-35.7.88-77.53 1.63-79.3 3.01-7.03 10.82-10.67 18.14-8.45 1.83.55 45.15 14.02 61.79 49.71 14.16 30.36 3.61 65.14-.33 75.96.52 11.53 3.02 23.78 7.61 37.22 23.81 16.71 34.13 45.41 37.53 57.24 11.4 9.94 24.44 17.45 38.04 21.89 15.51 0 28.58 3.22 34.14 4.83 7.96-.3 25.05-3.38 50.23-3.41 11.98-.01 25.79.67 41.33 2.67 2.95.39 5.95.63 8.93.74 5.56-1.61 18.63-4.83 34.13-4.83 13.6-4.44 26.65-11.95 38.05-21.89 3.4-11.83 13.72-40.53 37.53-57.24 4.58-13.44 7.09-25.69 7.61-37.22-3.94-10.82-14.49-45.61-.34-75.96 16.65-35.69 59.96-49.16 61.8-49.71 7.32-2.22 15.13 1.42 18.14 8.45.75 1.77 18.28 43.6 1.63 79.3-11.91 25.54-37.47 39.7-51.72 45.89-.5 5.31-1.32 10.72-2.46 16.24 25.49-3.4 48.42 3.93 49.74 4.37 7.26 2.38 11.57 9.84 10 17.33z" fill="#fed843"/><path d="m510.304 305.21c-.39 1.87-10.03 46.2-44.14 65.89-20.55 11.86-48.71 12.74-70.8 7.6-3.56 2.94-7.24 5.71-11.02 8.28 32.78 20.15 42.11 63.07 42.5 64.92 1.57 7.48-2.74 14.95-10 17.33-23.17 7.59-56.07 8.04-79.14-5.28-23.85-13.77-35.73-39.32-40.86-54.06-18.21-1.85-28.16-3-40.91-2.89v-29.93c11.98-.01 25.79.67 41.33 2.67 2.95.39 5.95.63 8.93.74 5.56-1.61 18.63-4.83 34.13-4.83 13.6-4.44 26.65-11.95 38.05-21.89 3.4-11.83 13.72-40.53 37.53-57.24 4.58-13.44 7.09-25.69 7.61-37.22-3.94-10.82-14.49-45.61-.34-75.96 16.65-35.69 59.96-49.16 61.8-49.71 7.32-2.22 15.13 1.42 18.14 8.45.75 1.77 18.28 43.6 1.63 79.3-11.91 25.54-37.47 39.7-51.72 45.89-.5 5.31-1.32 10.72-2.46 16.24 25.49-3.4 48.42 3.93 49.74 4.37 7.26 2.38 11.57 9.84 10 17.33z" fill="#fabe2c"/></g></svg>